#!OML:ASF F:\VICON\USERDATA\INSTALL\rory3\rory3.ASF
:FULLY-SPECIFIED
:DEGREES
35
root 0.3788174157696238 14.204926154478779 -16.504984390058308 37.33807614098221 -1.1667794247009409 -3.606117035745354
lfemur -91.47146764904375 6.61233628316262 -22.053974903464308
ltibia 79.19537471192024
lfoot -23.95148485222697 20.752475663552552
ltoes -12.860498553703831
rfemur -90.66227004841528 0.991449255046819 23.403684189804853
rtibia 78.73587570364425
rfoot -29.391781889221953 -13.80857885086433
rtoes -1.5891602241957505
lowerback 42.8010715552779 1.9430090198203886 -1.8852864287520772
upperback 3.1400448353060195 1.9901635902266894 2.5459506677427455
thorax -17.280169752050416 1.0014514006398272 2.865412232503333
lowerneck -20.423778123586537 0.13406998775734336 -2.3886173615932083
upperneck -9.602208048874164 0.6586294721822943 -0.9180894059047202
head 0.2746005130430653 0.3888387389043913 0.1505988465439648
lclavicle 3.8825761552531234e-16 -1.4342433444330847e-15
lhumerus -66.6473661253871 -0.2768354541180642 78.39390884815093
lradius 17.809810745609422
lwrist 22.347693990453376
lhand -22.78501281599759 -5.676654421131944
lfingers 7.12502
lthumb 3.650697053269659 24.27179563496062
rclavicle 3.8825761552531234e-16 -1.4342433444330847e-15
rhumerus -65.6464657324147 -15.95379209564668 -53.61822937436578
rradius 22.88130849391439
rwrist 30.568395091340655
rhand -14.342123900640846 -20.065625007603334
rfingers 7.12502
rthumb 11.799175899087432 -49.71322579457919
36
root 0.34161235606183304 14.055062507758786 -16.342681975854976 38.28231560406789 -0.7113023278066966 -3.8835890351067937
lfemur -95.23148888011147 6.742022430783604 -21.84968694684257
ltibia 82.71187602628757
lfoot -24.491506923292846 21.77740392701405
ltoes -14.588653272543453
rfemur -91.22142533932734 0.7970531764085362 23.896751607644074
rtibia 81.13126100824299
rfoot -30.523504971956463 -15.684344082261292
rtoes -1.5697092437095828
lowerback 46.62988703827924 2.3191081256248873 -1.7571875544559739
upperback 2.7216185497180456 2.6436014885624504 2.7720870114830816
thorax -19.140813102438287 1.3010817144379456 2.9881275665446347
lowerneck -20.668049368560133 -0.02798189065776202 -2.188769486568157
upperneck -11.534350930888749 0.4800723756015416 -0.9500130879704565
head -0.6390894588592904 0.282596775708179 0.10181339839684447
lclavicle 3.8827785180754974e-16 -1.4337035184682094e-15
lhumerus -69.071101973581 0.6293212772131556 77.7180042993444
lradius 15.657914885688655
lwrist 17.13596727272349
lhand -23.29178466115166 -5.939206751729264
lfingers 7.12502
lthumb 3.1106907159976354 23.972816264903344
rclavicle 3.8856863809905355e-16 -1.4338288518548122e-15
rhumerus -67.190224591258 -16.648476124908207 -51.339787557114605
rradius 20.109351686143462
rwrist 32.915771369433806
rhand -15.7159493159378 -20.039116583103265
rfingers 7.12502
rthumb 10.450407190825892 -49.94926814316596
37
root 0.2960612257908145 13.964680800139128 -15.953804131948766 39.39446582061207 -0.07402475572794054 -4.013199213259596
lfemur -97.45480357762935 6.636638277301094 -21.69014321233873
ltibia 85.57779153051118
lfoot -24.920735828690177 22.593580361956022
ltoes -16.86791779031932
rfemur -89.97407885403167 0.6908452143294777 24.201907189173667
rtibia 82.46609935849688
rfoot -31.617980598843303 -17.644464236902216
rtoes -2.299965741955826
lowerback 48.29680170891761 2.4113902608404287 -1.7706754379140244
upperback 2.18659842060445 2.865419675510602 2.9616193268402804
thorax -20.303073640234253 1.4222496237535387 3.203017141961168
lowerneck -21.139628661694097 -0.12121350468611924 -1.7898483199553343
upperneck -12.560340459754272 0.39178735814586363 -0.9939171071064319
head -1.1462458265041615 0.22830171587752224 0.029518672322475015
lclavicle 3.876577691981495e-16 -1.4345570230813184e-15
lhumerus -67.54186514506085 2.113066418717839 76.24200510582104
lradius 13.63333135689287
lwrist 11.074390018627113
lhand -24.517905352396067 -6.361708071103503
lfingers 7.12502
lthumb 1.815631886568374 23.39000679744866
rclavicle 3.8849678485703103e-16 -1.4339313526006945e-15
rhumerus -64.08684577944149 -18.27973257620984 -50.49835048590165
rradius 17.139235298719097
rwrist 36.38328834684183
rhand -17.281982241333353 -20.502206463428923
rfingers 7.12502
rthumb 8.966646834457467 -50.49260716391933
38
root 0.25732654366805185 13.993955973575138 -15.323160051180112 40.63978783743171 0.7640903707536961 -3.7134975224085425
lfemur -97.00569751931522 6.112160953600577 -21.67397523324823
ltibia 86.75833619198
lfoot -25.141097857608806 23.17683162735305
ltoes -18.470987398339258
rfemur -86.61682144649 0.6116595156610374 24.094989253049054
rtibia 82.09204179304601
rfoot -32.613608422604095 -19.595957775176963
rtoes -3.6124408158029215
lowerback 47.341056604142445 2.123465213677264 -1.8733237652162291
upperback 1.5763281483761125 2.553627096730997 2.9946876739158554
thorax -20.691828698888116 1.334622214561257 3.405994129188919
lowerneck -21.503638300709575 -0.18020203433792048 -1.4761999315442127
upperneck -12.527419817514435 0.33095261611698645 -1.0253107011694762
head -1.201915224925333 0.19162238549901575 -0.036668105698235115
lclavicle 3.8812773327436107e-16 -1.4338733785068472e-15
lhumerus -62.4983014598606 3.9902491666556408 74.58125512211626
lradius 12.42235963054698
lwrist 6.739495469449064
lhand -25.751024766903953 -6.76590879066468
lfingers 7.12502
lthumb 0.37463060623701894 22.843070560132997
rclavicle 3.8855478004826473e-16 -1.4338509058569331e-15
rhumerus -56.822610174373104 -19.80700074868366 -52.068942288435025
rradius 15.463859354434573
rwrist 38.71446724308344
rhand -18.81148891604663 -21.397702827300265
rfingers 7.12502
rthumb 7.534403280507034 -51.34490771521043
39
root 0.22932404735061324 14.201840416485997 -14.479621881924123 41.14775742218416 1.5028039349196058 -3.1050911482032766
lfemur -92.66757675679227 5.552270478213408 -21.67760198442063
ltibia 85.68538506708956
lfoot -24.99895644345286 23.242952647170874
ltoes -19.748321740868334
rfemur -80.9143809348995 0.5216334421828401 23.606619759852443
rtibia 79.4821996680773
rfoot -33.1860642841257 -21.29221077898906
rtoes -5.636114858422678
lowerback 43.88275503423483 1.6512685393951168 -2.0018986350339896
upperback 1.0677521365487337 1.9256534140018833 2.816001007584232
thorax -19.7687908367786 1.1057283108144373 3.47511686324237
lowerneck -21.23277226636351 -0.21713822587187337 -1.4295956858649352
upperneck -11.231712744469355 0.28327412264016905 -1.032030485816694
head -0.8849561050220576 0.16103442699770518 -0.07977593042188094
lclavicle 3.8856702823322675e-16 -1.4332355426801145e-15
lhumerus -55.24079320829414 5.5015113868267616 73.39151331946942
lradius 12.955688538047893
lwrist 5.700078735402647
lhand -26.648265402777035 -7.079980107012793
lfingers 7.12502
lthumb -0.7261933895936111 22.39040071528665
rclavicle 3.886762468846267e-16 -1.4336786389163143e-15
rhumerus -46.84574267682091 -20.05121414595131 -56.32599837865682
rradius 16.15928398670994
rwrist 38.186651131306675
rhand -20.552780129580576 -22.66862500552309
rfingers 7.12502
rthumb 5.945381262905054 -52.51480397231393
40
root 0.22457414491554673 14.525632410360203 -13.705343059195103 41.15670618346615 1.4669474703699952 -2.909655861470654
lfemur -87.07557907253917 5.65031775923253 -21.37657720999941
ltibia 83.06486684830605
lfoot -24.074501533199026 22.668566714211813
ltoes -21.074335094311266
rfemur -75.46538602783265 0.6020019260021114 23.23484858636005
rtibia 75.4344599584326
rfoot -33.059079791265106 -22.074736946579307
rtoes -8.457347084297664
lowerback 39.3440515428485 1.5026854086046808 -1.9787110688315626
upperback 0.8677838181452957 1.691779932037122 2.5613900678457937
thorax -17.560574694292335 1.006336407381217 3.3297484490350198
lowerneck -20.31187632240419 -0.2404288705479557 -1.5346346562370798
upperneck -9.03193701986018 0.2328500631553908 -1.0513345806330636
head -0.5901558674050023 0.12075273189001956 -0.1301389407898443
lclavicle 3.876664001537043e-16 -1.4345266904833269e-15
lhumerus -46.87480754480032 6.0521048490175335 73.29703187626012
lradius 14.362382041809978
lwrist 8.310520026695173
lhand -27.168236225138852 -7.241343352568485
lfingers 7.12502
lthumb -1.2581392936737505 22.185300579765816
rclavicle 3.884000110848524e-16 -1.434066082137168e-15
rhumerus -35.80451300579845 -18.209962404220345 -62.64306161268607
rradius 19.424473576791968
rwrist 34.76073881265239
rhand -22.352679950391266 -23.786358129029328
rfingers 7.12502
rthumb 4.3007832014151965 -53.62943590414282
